<svg data-v-423bf9ae="" xmlns="http://www.w3.org/2000/svg" viewBox="0 0 322 97" class="iconLeftSlogan"><!----><!----><!----><g data-v-423bf9ae="" id="899c3f5d-e069-41bc-9407-15405243c5ec" fill="#193655" transform="matrix(5.964215028353327,0,0,5.964215028353327,97.17997368204024,-22.18688031453052)"><path d="M7.59 3.92L5.66 3.92L5.66 9.81C5.66 10.21 5.66 10.53 5.64 10.84C5.56 11.76 5.11 12.33 4.21 12.33C3.30 12.33 2.74 11.84 2.67 10.56L2.65 10.07L0.71 10.07L0.73 10.56C0.78 12.53 1.86 13.78 4.10 13.78C6.40 13.78 7.45 12.61 7.55 10.95C7.59 10.33 7.59 10.02 7.59 9.62ZM13.73 3.72C11.06 3.72 9.06 5.64 9.06 8.81C9.06 11.89 10.91 13.78 13.59 13.78C16.07 13.78 17.64 12.43 17.85 10.37L17.86 10.23L15.95 10.23L15.92 10.37C15.67 11.58 14.94 12.33 13.68 12.33C12.21 12.33 11.10 11.10 11.10 8.69C11.10 6.50 12.15 5.17 13.71 5.17C14.99 5.17 15.72 5.87 15.96 7.06L15.99 7.20L17.92 7.20L17.91 7.06C17.71 5.15 16.35 3.72 13.73 3.72ZM23.77 8.54L28.04 3.92L25.75 3.92L21.57 8.58L21.57 3.92L19.64 3.92L19.64 13.58L21.57 13.58L21.57 10.54L22.37 9.67L25.35 13.58L27.85 13.58ZM33.35 3.72C30.67 3.72 28.67 5.64 28.67 8.81C28.67 11.89 30.52 13.78 33.21 13.78C35.69 13.78 37.25 12.43 37.46 10.37L37.48 10.23L35.56 10.23L35.53 10.37C35.28 11.58 34.55 12.33 33.29 12.33C31.82 12.33 30.72 11.10 30.72 8.69C30.72 6.50 31.77 5.17 33.32 5.17C34.61 5.17 35.34 5.87 35.57 7.06L35.60 7.20L37.53 7.20L37.52 7.06C37.32 5.15 35.97 3.72 33.35 3.72Z"></path></g><defs data-v-423bf9ae=""><linearGradient data-v-423bf9ae="" gradientTransform="rotate(25)" id="844126a6-d93e-4e7e-9c59-19899557011e" x1="0%" y1="0%" x2="100%" y2="0%"><stop data-v-423bf9ae="" offset="0%" style="stop-color: rgb(81, 164, 251); stop-opacity: 1;"></stop><stop data-v-423bf9ae="" offset="100%" style="stop-color: rgb(81, 164, 251); stop-opacity: 1;"></stop></linearGradient></defs><g data-v-423bf9ae="" id="55e12059-7b96-4a9f-9630-6397de118f69" transform="matrix(1.0371544731987847,0,0,1.0371544731987847,0.29271559883426335,0.5939792647232238)" stroke="none" fill="url(#844126a6-d93e-4e7e-9c59-19899557011e)"><path d="M29.772 62.251c-1.037 0-2.286-.347-3.771-1.254-2.594-1.586-15.195-9.244-21.579-13.22C2.266 46.428.915 45.59.634 45.332.446 45.14 0 44.799 0 44.157c.033-.89.675-1.939 2.732-4.25 1.727-1.92 6.853-7.493 12.124-12.597 5.333-5.099 10.543-9.736 13.233-9.829l.089.002c.925.043 2.478.325 4.43.748a.45.45 0 0 1 .355.413l.388 6.558 10.137 4.054 5.963-5.006a.446.446 0 0 1 .547-.025l3.54 2.476.292-2.377a.458.458 0 0 1 .198-.32.46.46 0 0 1 .374-.058l.989.285.188.107c.011.011 20.551 19.78 22.324 21.747l-.334.302-.335.299c-.832-.925-6.427-6.376-11.778-11.56a5767.11 5767.11 0 0 0-10.421-10.062l-.375-.106-.318 2.597a.447.447 0 0 1-.265.355.446.446 0 0 1-.439-.042l-3.873-2.708-5.904 4.959a.453.453 0 0 1-.457.072l-10.65-4.261a.456.456 0 0 1-.283-.393l-.384-6.499c-1.773-.379-3.196-.625-3.955-.658h-.041c-1.84-.093-7.421 4.495-12.607 9.577C10.238 33.034 5.118 38.6 3.404 40.506 1.359 42.751.87 43.827.903 44.155c0 .192.087.258.37.539.008.029 1.528 1.019 3.626 2.317a1417.18 1417.18 0 0 0 7.851 4.839c5.816 3.563 11.992 7.32 13.722 8.378 1.384.845 2.473 1.123 3.303 1.123 1.167-.004 1.875-.547 2.264-1.021.771-.967 23.265-28.84 23.265-28.84a.453.453 0 0 1 .324-.167.448.448 0 0 1 .341.126c0 .002 13.455 13.072 16.921 16.541 1.004 1.002 1.936 1.339 2.684 1.341 1.218-.002 2.021-.917 2.023-1.741a1.336 1.336 0 0 0-.359-.907l.335-.299.334-.302c.399.444.593.983.591 1.508-.008 1.385-1.249 2.637-2.924 2.639-1.031.002-2.193-.475-3.319-1.603-3.127-3.122-14.419-14.101-16.565-16.186-2.705 3.355-22.239 27.562-22.952 28.457-.513.641-1.492 1.354-2.953 1.354h-.013z"></path><path d="M60.19 12.957c-.268-.297-1.478-1.482-2.937-2.896a1.255 1.255 0 0 0-.498-.844L55.172 8.05c-2.215-2.134-4.317-4.146-4.317-4.146S41.327.607 39.352.522C37.378.437 29.48 9.315 27.934 11.03c-1.546 1.716-1.202 1.889-.944 2.147.106.106 1.883.866 4.043 1.789l.631 10.62c.029.487.333.911.788 1.094l10.653 4.26c.01.004.02.002.029.006.142.052.288.085.435.085h.003c.137 0 .27-.027.397-.07.04-.013.074-.036.113-.053.086-.039.168-.082.243-.139.018-.013.039-.018.056-.032l5.431-4.561 3.363 2.353a1.258 1.258 0 0 0 1.969-.879l1.813-14.82c.404.395.755.741 1.001.987 1.545 1.545 3.008 0 2.232-.86zm-26.57 3.119c2.367 1.02 4.615 2.013 5.279 2.42 1.545.946 2.403.428 2.747 0 .055-.069.338-.415.771-.942l-.089 10.366-8.2-3.281-.508-8.563zm19.279 9.191l-2.438-1.706a1.254 1.254 0 0 0-1.532.068l-4.076 3.424.107-12.595 5.533-6.727 4.175 3.075-1.769 14.461z"></path><path d="M40.478 19.548c-.538 0-1.154-.181-1.851-.608-1.241-.769-9.198-4.054-11.332-5.025-.342-.173-.433-.173-.674-.371-.049-.054-.379-.301-.379-.75.037-.596.379-1.059 1.304-2.114 1.158-1.282 5.843-6.554 9.029-9.161C37.67.655 38.482.043 39.321 0h.01c.017 0 .047-.001.092.005 2.293.163 11.555 3.401 11.6 3.406l.189.115c.013.012 8.543 8.172 9.363 9.081.232.256.35.581.348.891-.01.82-.719 1.494-1.628 1.498-.561 0-1.162-.264-1.706-.81-1.28-1.282-5.237-5.1-6.52-6.337a6327.444 6327.444 0 0 0-9.019 10.974 1.98 1.98 0 0 1-1.562.726l-.01-.001zm-13.096-6.745c.08.039.198.097.346.163.299.138.719.321 1.22.54 1.006.435 2.341 1.003 3.718 1.593 2.768 1.187 5.643 2.43 6.504 2.954.579.354 1.008.456 1.307.456.412-.004.633-.186.761-.336.352-.443 9.383-11.418 9.385-11.422a.528.528 0 0 1 .373-.188.52.52 0 0 1 .392.145c.002.002 5.384 5.186 6.939 6.741.402.402.736.505.969.505.382 0 .585-.291.585-.455a.28.28 0 0 0-.078-.194c-.682-.76-8.35-8.105-9.228-8.945-.491-.169-2.595-.889-4.89-1.618-2.602-.833-5.537-1.676-6.356-1.698l-.013-.001c-.005 0-.014 0-.033-.003-.24.016-1.114.494-2.048 1.289-1.019.831-2.226 1.976-3.419 3.176-2.391 2.401-4.726 5.021-5.497 5.876-.447.495-.723.851-.876 1.09a1.538 1.538 0 0 0-.149.278.447.447 0 0 1 .023.022l.065.032zm23.283-5.346l.362-.375-.362.375zM77.569 46.385c-1.731-1.922-22.301-21.723-22.301-21.723l-.99-.283-.381 3.114-.003.003-4.153-2.904-6.169 5.181-10.652-4.261-.406-6.841c-1.939-.422-3.495-.701-4.354-.738-4.424-.192-21.633 18.429-25.092 22.275C-.393 44.052.377 44.437.952 45.015c.116.116 1.075.734 2.546 1.657-.026.193-.036.39-.006.592v-.002l3.942 26.856c.083.562.385 1.061.846 1.396l24.097 17.432c.014.01.031.013.045.022.159.109.331.197.516.26.026.009.051.015.077.022a1.932 1.932 0 0 0 .817.081c.031-.003.059-.014.089-.019.074-.011.146-.027.22-.047.063-.017.126-.034.187-.057.03-.012.062-.016.092-.028l31.783-13.33a2.103 2.103 0 0 0 1.273-1.695l3.589-31.272.005-.059c.601.592 1.115 1.102 1.5 1.487 3.46 3.458 6.73 0 4.999-1.926zM11.458 72.631L8.062 49.502c6.689 4.123 15.986 9.774 18.174 11.112.902.551 1.697.876 2.396 1.044a2.091 2.091 0 0 0-.188 1.097l2.574 24.027-19.56-14.151zm37.149 6.564c-.006-6.268.787-9.961 1.737-11.941.987-1.976 1.82-2.283 2.713-2.485a2.71 2.71 0 0 1 .5-.052c.334.021.359.033.547.188.285.225.889 1.291 1.258 3.66.388 2.348.612 5.903.612 11.023l-7.34 3.078a217.376 217.376 0 0 1-.027-3.471zm18.285-32.751l-3.444 30.009-4.124 1.729c-.054-6.141-.427-9.969-1.166-12.517-.406-1.367-.929-2.423-1.749-3.204-.814-.793-1.93-1.121-2.851-1.103-.37 0-.735.039-1.095.103-1.816.275-3.902 1.607-5.152 4.353-1.287 2.739-2.052 6.844-2.06 13.38 0 1.806.019 3.421.054 4.868l-9.91 4.156-2.776-25.908a2.081 2.081 0 0 0-.637-1.282c.159-.136.297-.276.407-.414.742-.93 21.796-27.022 23.188-28.747l3.978 3.702a4965.34 4965.34 0 0 1 7.566 7.379l-.229 3.496z"></path><g><path d="M49.323 14.046c-.01.227.167.366.395.314a.59.59 0 0 0 .436-.503c.011-.227-.164-.366-.395-.312a.59.59 0 0 0-.436.501zM48.858 18.956c-.022.406.297.659.709.564.413-.098.765-.504.785-.911l-1.494.347z"></path><path d="M52.166 17.646c0-.004.016-.256.031-.591 0-.008-.514-.026-.751-.091-.072-.021-.107-.231-.107-.262l.057-1.087c.021-.929-.719-1.5-1.677-1.278-.956.222-1.773 1.154-1.848 2.096-.002.009-.024.485-.057 1.086-.002.032-.07.271-.157.332-.266.177-.802.431-.814.447-.017.335-.029.587-.031.593l5.354-1.245z"></path></g></g><!----><g data-v-423bf9ae="" id="1c7ebe4e-77e4-42f6-8329-6c82a3112625" fill="#193655" transform="matrix(0.43323694160005655,0,0,0.43323694160005655,101.87813247941205,58.76527475173877)"><path d="M-1.07 15.35L-1.07 15.35L-1.07 15.35Q-1.07 15.07-0.75 14.78L-0.75 14.78L-0.75 14.78Q-0.43 14.49-0.20 14.49L-0.20 14.49L-0.20 14.49Q0.01 14.49 0.29 14.88L0.29 14.88L0.29 14.88Q0.56 15.25 0.77 15.26L0.77 15.26L0.77 15.26Q1.68 15.26 1.68 12.75L1.68 12.75L1.68 4.14L1.68 4.14Q1.68 3.81 1.58 3.72L1.58 3.72L1.58 3.72Q1.48 3.64 1.05 3.64L1.05 3.64L0.53 3.64L0.53 3.08L3.89 3.08L3.86 3.64L3.42 3.64L3.42 3.64Q3.03 3.64 2.93 3.73L2.93 3.73L2.93 3.73Q2.82 3.84 2.82 4.28L2.82 4.28L2.82 12.44L2.82 12.44Q2.82 13.80 2.45 14.39L2.45 14.39L2.45 14.39Q2.28 14.67 1.79 15.16L1.79 15.16L1.79 15.16Q1.33 15.62 0.96 15.80L0.96 15.80L0.96 15.80Q0.53 16.03 0.03 16.02L0.03 16.02L0.03 16.02Q-0.36 16.02-0.72 15.80L-0.72 15.80L-0.72 15.80Q-1.07 15.59-1.07 15.35ZM12.01 7.83L12.01 7.83L12.01 7.83Q12.01 6.62 12.41 5.68L12.41 5.68L12.41 5.68Q12.83 4.72 13.52 4.12L13.52 4.12L13.52 4.12Q14.21 3.51 15.07 3.19L15.07 3.19L15.07 3.19Q15.91 2.88 16.86 2.88L16.86 2.88L16.86 2.88Q18.12 2.88 19.17 3.40L19.17 3.40L19.17 3.40Q20.25 3.93 20.97 5.07L20.97 5.07L20.97 5.07Q21.66 6.17 21.67 7.75L21.67 7.75L21.67 7.75Q21.67 8.70 21.36 9.54L21.36 9.54L21.36 9.54Q21.05 10.38 20.45 11.10L20.45 11.10L20.45 11.10Q19.84 11.81 18.91 12.22L18.91 12.22L18.91 12.22Q17.94 12.63 16.75 12.64L16.75 12.64L16.75 12.64Q15.62 12.64 14.68 12.23L14.68 12.23L14.68 12.23Q13.75 11.83 13.19 11.14L13.19 11.14L13.19 11.14Q12.61 10.45 12.32 9.60L12.32 9.60L12.32 9.60Q12.01 8.72 12.01 7.83ZM13.27 7.38L13.27 7.38L13.27 7.38Q13.27 8.52 13.70 9.60L13.70 9.60L13.70 9.60Q14.10 10.64 15.03 11.33L15.03 11.33L15.03 11.33Q15.94 12.03 17.13 12.04L17.13 12.04L17.13 12.04Q18.50 12.04 19.44 11.01L19.44 11.01L19.44 11.01Q20.39 9.97 20.39 8.10L20.39 8.10L20.39 8.10Q20.39 5.99 19.23 4.72L19.23 4.72L19.23 4.72Q18.08 3.46 16.57 3.45L16.57 3.45L16.57 3.45Q16.05 3.45 15.51 3.65L15.51 3.65L15.51 3.65Q14.96 3.85 14.46 4.25L14.46 4.25L14.46 4.25Q13.91 4.68 13.59 5.48L13.59 5.48L13.59 5.48Q13.27 6.27 13.27 7.38ZM30.15 3.64L29.78 3.64L29.78 3.08L33.27 3.08L33.27 3.64L32.91 3.64L32.91 3.64Q32.40 3.64 32.25 3.75L32.25 3.75L32.25 3.75Q32.12 3.84 32.11 4.25L32.11 4.25L32.11 6.91L36.66 6.91L36.66 4.14L36.66 4.14Q36.66 3.77 36.57 3.71L36.57 3.71L36.57 3.71Q36.46 3.64 35.93 3.64L35.93 3.64L35.34 3.64L35.33 3.08L38.88 3.08L38.88 3.64L38.49 3.64L38.49 3.64Q38.01 3.64 37.91 3.74L37.91 3.74L37.91 3.74Q37.80 3.83 37.80 4.22L37.80 4.22L37.80 11.29L37.80 11.29Q37.80 11.67 37.93 11.77L37.93 11.77L37.93 11.77Q38.09 11.87 38.64 11.87L38.64 11.87L39.11 11.87L39.09 12.41L35.61 12.41L35.59 11.87L36.00 11.87L36.00 11.87Q36.47 11.87 36.57 11.77L36.57 11.77L36.57 11.77Q36.66 11.67 36.66 11.25L36.66 11.25L36.66 7.58L32.11 7.58L32.11 11.25L32.11 11.25Q32.11 11.67 32.26 11.77L32.26 11.77L32.26 11.77Q32.42 11.87 33.12 11.87L33.12 11.87L33.52 11.87L33.50 12.41L29.91 12.41L29.90 11.87L30.26 11.87L30.26 11.87Q30.81 11.87 30.88 11.80L30.88 11.80L30.88 11.80Q30.97 11.70 30.97 11.25L30.97 11.25L30.97 4.09L30.97 4.09Q30.97 3.76 30.84 3.71L30.84 3.71L30.84 3.71Q30.67 3.64 30.15 3.64L30.15 3.64ZM46.86 3.64L46.85 3.08L49.02 3.08L54.76 10.48L54.76 4.14L54.76 4.14Q54.76 3.81 54.60 3.72L54.60 3.72L54.60 3.72Q54.45 3.64 53.99 3.64L53.99 3.64L53.50 3.64L53.53 3.08L56.51 3.08L56.51 3.64L56.18 3.64L56.18 3.64Q55.72 3.64 55.57 3.75L55.57 3.75L55.57 3.75Q55.42 3.86 55.42 4.25L55.42 4.25L55.42 12.32L55.42 12.47L55.42 12.47Q55.42 12.52 55.41 12.57L55.41 12.57L55.41 12.57Q55.39 12.61 55.36 12.64L55.36 12.64L55.36 12.64Q55.34 12.65 55.29 12.65L55.29 12.65L55.10 12.65L55.04 12.65L55.01 12.65L54.98 12.64L54.98 12.64Q54.95 12.64 54.94 12.63L54.94 12.63L54.94 12.63Q54.93 12.61 54.93 12.60L54.93 12.60L54.93 12.60Q54.93 12.58 54.91 12.57L54.91 12.57L54.91 12.57Q54.89 12.54 54.86 12.50L54.86 12.50L54.86 12.50Q54.84 12.48 54.82 12.45L54.82 12.45L54.82 12.45Q54.80 12.41 54.79 12.40L54.79 12.40L48.69 4.56L48.75 11.22L48.75 11.22Q48.75 11.67 48.92 11.77L48.92 11.77L48.92 11.77Q49.08 11.87 49.79 11.87L49.79 11.87L50.03 11.87L50.03 12.41L47.09 12.41L47.09 11.87L47.51 11.87L47.51 11.87Q47.89 11.87 48.00 11.76L48.00 11.76L48.00 11.76Q48.09 11.66 48.10 11.25L48.10 11.25L48.10 3.80L47.95 3.64L46.86 3.64ZM64.22 10.04L64.22 10.04L64.71 9.98L64.89 10.85L64.89 10.85Q65.00 11.33 65.07 11.41L65.07 11.41L65.07 11.41Q65.14 11.49 65.55 11.64L65.55 11.64L65.55 11.64Q66.39 11.95 67.29 11.95L67.29 11.95L67.29 11.95Q68.07 11.95 68.61 11.49L68.61 11.49L68.61 11.49Q69.15 11.04 69.15 10.26L69.15 10.26L69.15 10.26Q69.15 9.65 68.69 9.21L68.69 9.21L68.69 9.21Q68.21 8.76 67.35 8.30L67.35 8.30L66.78 7.98L66.78 7.98Q66.04 7.55 65.80 7.36L65.80 7.36L65.80 7.36Q65.44 7.08 65.13 6.59L65.13 6.59L65.13 6.59Q64.82 6.10 64.82 5.46L64.82 5.46L64.82 5.46Q64.82 4.39 65.66 3.68L65.66 3.68L65.66 3.68Q66.50 2.97 67.61 2.97L67.61 2.97L67.61 2.97Q67.89 2.97 68.24 3.04L68.24 3.04L68.24 3.04Q68.43 3.08 68.77 3.17L68.77 3.17L69.01 3.25L69.01 3.25Q69.10 3.25 69.15 3.16L69.15 3.16L69.15 3.16Q69.20 3.05 69.20 2.98L69.20 2.98L69.21 2.88L69.69 2.85L69.90 5.41L69.40 5.43L69.28 4.18L69.28 4.18Q68.53 3.62 67.37 3.62L67.37 3.62L67.37 3.62Q66.73 3.62 66.22 4.05L66.22 4.05L66.22 4.05Q65.74 4.47 65.74 5.12L65.74 5.12L65.74 5.12Q65.74 5.72 66.19 6.17L66.19 6.17L66.19 6.17Q66.62 6.60 67.49 7.08L67.49 7.08L68.26 7.50L68.26 7.50Q69.21 8.03 69.75 8.59L69.75 8.59L69.75 8.59Q70.28 9.15 70.28 9.92L70.28 9.92L70.28 9.92Q70.28 10.99 69.43 11.76L69.43 11.76L69.43 11.76Q68.56 12.54 67.10 12.54L67.10 12.54L67.10 12.54Q66.54 12.54 66.04 12.41L66.04 12.41L66.04 12.41Q65.54 12.29 65.48 12.29L65.48 12.29L65.48 12.29Q65.23 12.29 65.23 12.58L65.23 12.58L65.24 12.76L64.76 12.80L64.76 12.80Q64.70 12.41 64.22 10.04ZM78.85 7.83L78.85 7.83L78.85 7.83Q78.85 6.62 79.25 5.68L79.25 5.68L79.25 5.68Q79.67 4.72 80.36 4.12L80.36 4.12L80.36 4.12Q81.05 3.51 81.91 3.19L81.91 3.19L81.91 3.19Q82.75 2.88 83.70 2.88L83.70 2.88L83.70 2.88Q84.96 2.88 86.01 3.40L86.01 3.40L86.01 3.40Q87.09 3.93 87.80 5.07L87.80 5.07L87.80 5.07Q88.50 6.17 88.50 7.75L88.50 7.75L88.50 7.75Q88.50 8.70 88.20 9.54L88.20 9.54L88.20 9.54Q87.89 10.38 87.28 11.10L87.28 11.10L87.28 11.10Q86.68 11.81 85.74 12.22L85.74 12.22L85.74 12.22Q84.78 12.63 83.59 12.64L83.59 12.64L83.59 12.64Q82.46 12.64 81.52 12.23L81.52 12.23L81.52 12.23Q80.58 11.83 80.02 11.14L80.02 11.14L80.02 11.14Q79.45 10.45 79.15 9.60L79.15 9.60L79.15 9.60Q78.85 8.72 78.85 7.83ZM80.10 7.38L80.10 7.38L80.10 7.38Q80.10 8.52 80.53 9.60L80.53 9.60L80.53 9.60Q80.94 10.64 81.87 11.33L81.87 11.33L81.87 11.33Q82.78 12.03 83.97 12.04L83.97 12.04L83.97 12.04Q85.34 12.04 86.28 11.01L86.28 11.01L86.28 11.01Q87.23 9.97 87.23 8.10L87.23 8.10L87.23 8.10Q87.23 5.99 86.06 4.72L86.06 4.72L86.06 4.72Q84.92 3.46 83.41 3.45L83.41 3.45L83.41 3.45Q82.89 3.45 82.34 3.65L82.34 3.65L82.34 3.65Q81.80 3.85 81.29 4.25L81.29 4.25L81.29 4.25Q80.75 4.68 80.42 5.48L80.42 5.48L80.42 5.48Q80.10 6.27 80.10 7.38ZM96.63 3.64L96.62 3.08L98.79 3.08L104.53 10.48L104.53 4.14L104.53 4.14Q104.53 3.81 104.37 3.72L104.37 3.72L104.37 3.72Q104.22 3.64 103.76 3.64L103.76 3.64L103.27 3.64L103.30 3.08L106.28 3.08L106.28 3.64L105.96 3.64L105.96 3.64Q105.49 3.64 105.34 3.75L105.34 3.75L105.34 3.75Q105.19 3.86 105.19 4.25L105.19 4.25L105.19 12.32L105.19 12.47L105.19 12.47Q105.19 12.52 105.18 12.57L105.18 12.57L105.18 12.57Q105.16 12.61 105.13 12.64L105.13 12.64L105.13 12.64Q105.12 12.65 105.06 12.65L105.06 12.65L104.87 12.65L104.81 12.65L104.78 12.65L104.75 12.64L104.75 12.64Q104.73 12.64 104.71 12.63L104.71 12.63L104.71 12.63Q104.70 12.61 104.70 12.60L104.70 12.60L104.70 12.60Q104.70 12.58 104.69 12.57L104.69 12.57L104.69 12.57Q104.66 12.54 104.63 12.50L104.63 12.50L104.63 12.50Q104.62 12.48 104.60 12.45L104.60 12.45L104.60 12.45Q104.58 12.41 104.56 12.40L104.56 12.40L98.46 4.56L98.53 11.22L98.53 11.22Q98.53 11.67 98.69 11.77L98.69 11.77L98.69 11.77Q98.85 11.87 99.56 11.87L99.56 11.87L99.80 11.87L99.80 12.41L96.86 12.41L96.86 11.87L97.28 11.87L97.28 11.87Q97.66 11.87 97.77 11.76L97.77 11.76L97.77 11.76Q97.86 11.66 97.87 11.25L97.87 11.25L97.87 3.80L97.73 3.64L96.63 3.64ZM123.97 8.02L123.97 8.02L123.97 8.02Q123.97 6.86 124.44 5.83L124.44 5.83L124.44 5.83Q124.91 4.85 125.66 4.27L125.66 4.27L125.66 4.27Q126.40 3.69 127.30 3.37L127.30 3.37L127.30 3.37Q128.19 3.05 129.04 3.05L129.04 3.05L129.04 3.05Q129.90 3.05 130.57 3.16L130.57 3.16L130.57 3.16Q131.20 3.26 131.50 3.37L131.50 3.37L131.50 3.37Q131.80 3.48 131.84 3.48L131.84 3.48L131.84 3.48Q132.01 3.48 132.03 3.41L132.03 3.41L132.03 3.41Q132.06 3.33 132.06 3.09L132.06 3.09L132.06 2.97L132.59 2.97L132.59 2.97Q132.63 4.30 132.76 5.64L132.76 5.64L132.25 5.65L132.25 5.65Q132.23 5.40 132.21 5.26L132.21 5.26L132.21 5.26Q132.21 5.20 132.21 5.13L132.21 5.13L132.21 5.13Q132.20 5.07 132.19 5.02L132.19 5.02L132.19 5.02Q132.19 4.98 132.19 4.95L132.19 4.95L132.19 4.95Q132.16 4.84 132.16 4.74L132.16 4.74L132.16 4.74Q132.16 4.68 132.12 4.59L132.12 4.59L132.12 4.59Q132.12 4.57 132.09 4.55L132.09 4.55L132.09 4.55Q132.06 4.52 132.06 4.50L132.06 4.50L132.06 4.50Q132.03 4.44 131.96 4.41L131.96 4.41L131.96 4.41Q131.92 4.38 131.89 4.37L131.89 4.37L131.89 4.37Q131.87 4.36 131.84 4.35L131.84 4.35L131.84 4.35Q131.82 4.35 131.80 4.33L131.80 4.33L131.80 4.33Q131.78 4.31 131.74 4.29L131.74 4.29L131.74 4.29Q131.69 4.27 131.65 4.25L131.65 4.25L131.65 4.25Q131.43 4.16 131.40 4.14L131.40 4.14L131.40 4.14Q131.05 3.96 130.41 3.83L130.41 3.83L130.41 3.83Q129.74 3.71 129.08 3.71L129.08 3.71L129.08 3.71Q127.35 3.71 126.26 4.84L126.26 4.84L126.26 4.84Q125.15 5.99 125.16 7.62L125.16 7.62L125.16 7.62Q125.16 9.35 126.38 10.69L126.38 10.69L126.38 10.69Q127.58 12.02 129.40 12.02L129.40 12.02L129.40 12.02Q130.40 12.02 131.35 11.49L131.35 11.49L131.35 11.49Q132.30 10.94 132.32 10.58L132.32 10.58L132.36 9.41L132.86 9.41L132.77 11.45L132.77 11.45Q132.71 11.49 132.58 11.57L132.58 11.57L132.58 11.57Q132.52 11.60 132.06 11.85L132.06 11.85L132.06 11.85Q131.68 12.05 131.24 12.23L131.24 12.23L131.24 12.23Q130.87 12.39 130.22 12.51L130.22 12.51L130.22 12.51Q129.62 12.63 129.05 12.64L129.05 12.64L129.05 12.64Q126.67 12.64 125.31 11.39L125.31 11.39L125.31 11.39Q123.97 10.14 123.97 8.02ZM141.48 3.64L140.89 3.64L140.90 3.08L144.42 3.08L144.42 3.64L144.18 3.64L144.18 3.64Q143.64 3.64 143.47 3.73L143.47 3.73L143.47 3.73Q143.33 3.81 143.33 4.28L143.33 4.28L143.33 11.22L143.33 11.22Q143.33 11.68 143.44 11.77L143.44 11.77L143.44 11.77Q143.55 11.87 144.08 11.87L144.08 11.87L144.63 11.87L144.64 12.41L141.06 12.41L141.05 11.87L141.41 11.87L141.41 11.87Q141.97 11.87 142.08 11.77L142.08 11.77L142.08 11.77Q142.19 11.67 142.19 11.25L142.19 11.25L142.19 4.14L142.19 4.14Q142.19 3.77 142.09 3.71L142.09 3.71L142.09 3.71Q141.98 3.64 141.48 3.64L141.48 3.64ZM152.66 5.35L152.16 5.33L152.16 5.33Q152.28 4.17 152.37 3.08L152.37 3.08L160.45 3.08L160.45 3.08Q160.36 4.13 160.34 4.53L160.34 4.53L160.34 4.53Q160.30 5.26 160.28 5.32L160.28 5.32L159.78 5.30L159.78 5.30Q159.86 4.34 159.86 4.16L159.86 4.16L159.86 4.16Q159.86 3.88 159.71 3.79L159.71 3.79L159.71 3.79Q159.54 3.69 159.14 3.69L159.14 3.69L157.53 3.69L157.53 3.69Q157.03 3.69 156.91 3.79L156.91 3.79L156.91 3.79Q156.81 3.87 156.80 4.36L156.80 4.36L156.80 11.22L156.80 11.22Q156.80 11.66 156.95 11.76L156.95 11.76L156.95 11.76Q157.10 11.87 157.62 11.87L157.62 11.87L158.18 11.87L158.19 12.41L154.50 12.40L154.50 11.87L154.72 11.87L154.72 11.87Q155.39 11.87 155.53 11.79L155.53 11.79L155.53 11.79Q155.67 11.70 155.67 11.28L155.67 11.28L155.67 4.48L155.67 4.48Q155.67 3.92 155.58 3.80L155.58 3.80L155.58 3.80Q155.48 3.69 155.05 3.69L155.05 3.69L153.58 3.69L153.58 3.69Q153.40 3.69 153.33 3.71L153.33 3.71L153.33 3.71Q153.26 3.72 153.15 3.72L153.15 3.72L153.15 3.72Q153.13 3.72 153.01 3.79L153.01 3.79L153.01 3.79Q152.93 3.84 152.90 3.86L152.90 3.86L152.90 3.86Q152.87 3.88 152.83 3.99L152.83 3.99L152.83 3.99Q152.80 4.05 152.78 4.14L152.78 4.14L152.78 4.14Q152.75 4.21 152.73 4.36L152.73 4.36L152.73 4.36Q152.70 4.59 152.70 4.61L152.70 4.61L152.70 4.61Q152.70 4.80 152.69 4.95L152.69 4.95L152.69 4.95Q152.69 5.02 152.68 5.15L152.68 5.15L152.68 5.15Q152.67 5.29 152.66 5.35L152.66 5.35ZM168.33 3.64L168.33 3.64L168.34 3.08L171.48 3.08L171.48 3.64L171.20 3.64L171.20 3.64Q170.75 3.64 170.64 3.66L170.64 3.66L170.64 3.66Q170.47 3.71 170.47 3.82L170.47 3.82L170.47 3.82Q170.47 3.89 170.72 4.31L170.72 4.31L172.72 7.46L175.17 3.99L175.17 3.99Q175.25 3.83 175.26 3.82L175.26 3.82L175.26 3.82Q175.26 3.64 174.34 3.64L174.34 3.64L174.13 3.64L174.11 3.08L176.65 3.08L176.65 3.64L176.59 3.64L176.59 3.64Q176.24 3.64 176.09 3.72L176.09 3.72L176.09 3.72Q175.94 3.80 175.65 4.22L175.65 4.22L172.92 8.17L172.92 11.22L172.92 11.22Q172.92 11.66 173.03 11.77L173.03 11.77L173.03 11.77Q173.13 11.87 173.74 11.87L173.74 11.87L174.38 11.87L174.36 12.41L170.43 12.41L170.44 11.87L171.00 11.87L171.00 11.87Q171.53 11.87 171.66 11.79L171.66 11.79L171.66 11.79Q171.79 11.70 171.79 11.25L171.79 11.25L171.79 8.06L169.49 4.49L169.49 4.49Q169.07 3.84 168.94 3.73L168.94 3.73L168.94 3.73Q168.83 3.64 168.33 3.64ZM194.55 3.64L193.96 3.64L193.96 3.08L197.46 3.08L197.46 3.64L197.02 3.64L197.02 3.64Q196.62 3.64 196.51 3.73L196.51 3.73L196.51 3.73Q196.40 3.84 196.40 4.28L196.40 4.28L196.40 7.50L200.49 4.18L200.49 4.18Q200.84 3.89 200.84 3.77L200.84 3.77L200.84 3.77Q200.84 3.64 200.20 3.64L200.20 3.64L199.65 3.64L199.62 3.08L202.98 3.08L202.98 3.64L202.62 3.64L202.62 3.64Q202.19 3.64 201.97 3.76L201.97 3.76L201.97 3.76Q201.80 3.86 200.92 4.55L200.92 4.55L197.76 7.08L201.99 11.49L201.99 11.49Q202.35 11.87 202.59 11.87L202.59 11.87L203.40 11.87L203.38 12.41L201.17 12.41L196.92 7.74L196.40 8.16L196.40 11.22L196.40 11.22Q196.40 11.70 196.57 11.79L196.57 11.79L196.57 11.79Q196.74 11.87 197.50 11.87L197.50 11.87L197.81 11.87L197.81 12.41L194.23 12.41L194.22 11.87L194.59 11.87L194.59 11.87Q195.10 11.87 195.18 11.79L195.18 11.79L195.18 11.79Q195.27 11.70 195.27 11.25L195.27 11.25L195.27 4.14L195.27 4.14Q195.27 3.77 195.17 3.71L195.17 3.71L195.17 3.71Q195.06 3.64 194.55 3.64L194.55 3.64ZM211.72 3.64L211.13 3.64L211.15 3.08L214.66 3.08L214.66 3.64L214.43 3.64L214.43 3.64Q213.88 3.64 213.71 3.73L213.71 3.73L213.71 3.73Q213.58 3.81 213.58 4.28L213.58 4.28L213.58 11.22L213.58 11.22Q213.58 11.68 213.68 11.77L213.68 11.77L213.68 11.77Q213.79 11.87 214.33 11.87L214.33 11.87L214.87 11.87L214.89 12.41L211.31 12.41L211.29 11.87L211.65 11.87L211.65 11.87Q212.21 11.87 212.33 11.77L212.33 11.77L212.33 11.77Q212.44 11.67 212.44 11.25L212.44 11.25L212.44 4.14L212.44 4.14Q212.44 3.77 212.34 3.71L212.34 3.71L212.34 3.71Q212.23 3.64 211.72 3.64L211.72 3.64ZM222.67 3.64L222.63 3.08L226.41 3.08L226.41 3.08Q227.73 3.08 228.59 3.19L228.59 3.19L228.59 3.19Q229.41 3.29 230.10 3.69L230.10 3.69L230.10 3.69Q231.05 4.27 231.56 5.24L231.56 5.24L231.56 5.24Q232.05 6.21 232.05 7.39L232.05 7.39L232.05 7.39Q232.05 8.05 231.91 8.65L231.91 8.65L231.91 8.65Q231.75 9.29 231.36 9.98L231.36 9.98L231.36 9.98Q230.93 10.73 230.37 11.21L230.37 11.21L230.37 11.21Q229.74 11.76 228.77 12.08L228.77 12.08L228.77 12.08Q227.77 12.41 226.50 12.41L226.50 12.41L222.88 12.41L222.87 11.87L223.24 11.87L223.24 11.87Q223.76 11.87 223.86 11.79L223.86 11.79L223.86 11.79Q223.97 11.70 223.97 11.25L223.97 11.25L223.97 4.14L223.97 4.14Q223.97 3.77 223.88 3.71L223.88 3.71L223.88 3.71Q223.77 3.64 223.25 3.64L223.25 3.64L222.67 3.64ZM225.11 4.39L225.11 11.22L225.11 11.22Q225.11 11.67 225.27 11.77L225.27 11.77L225.27 11.77Q225.43 11.87 226.30 11.87L226.30 11.87L226.30 11.87Q227.35 11.87 228.14 11.61L228.14 11.61L228.14 11.61Q229.00 11.35 229.43 10.99L229.43 10.99L229.43 10.99Q229.93 10.58 230.23 10.05L230.23 10.05L230.23 10.05Q230.54 9.52 230.67 8.96L230.67 8.96L230.67 8.96Q230.79 8.41 230.79 7.82L230.79 7.82L230.79 7.82Q230.79 7.03 230.52 6.34L230.52 6.34L230.52 6.34Q230.25 5.65 229.73 5.05L229.73 5.05L229.73 5.05Q229.20 4.46 228.29 4.09L228.29 4.09L228.29 4.09Q227.36 3.73 226.20 3.73L226.20 3.73L225.68 3.73L225.68 3.73Q225.32 3.73 225.22 3.85L225.22 3.85L225.22 3.85Q225.11 3.99 225.11 4.39L225.11 4.39ZM240.02 12.13L240.02 12.13L240.02 12.13Q240.02 12.08 240.11 11.95L240.11 11.95L240.11 11.95Q240.17 11.87 240.41 11.60L240.41 11.60L240.41 11.60Q240.52 11.48 240.58 11.41L240.58 11.41L240.58 11.41Q240.65 11.33 240.69 11.29L240.69 11.29L246.97 4.18L241.26 4.18L241.26 4.18Q240.99 4.18 240.92 4.31L240.92 4.31L240.92 4.31Q240.86 4.43 240.80 5.09L240.80 5.09L240.80 5.09Q240.80 5.11 240.79 5.13L240.79 5.13L240.79 5.13Q240.78 5.16 240.78 5.21L240.78 5.21L240.78 5.21Q240.77 5.26 240.77 5.30L240.77 5.30L240.77 5.30Q240.74 5.53 240.74 5.58L240.74 5.58L240.18 5.55L240.18 5.55Q240.37 4.02 240.39 3.08L240.39 3.08L248.02 3.08L248.02 3.08Q248.45 3.08 248.45 3.21L248.45 3.21L248.45 3.21Q248.45 3.24 248.40 3.36L248.40 3.36L248.40 3.36Q248.37 3.41 248.29 3.55L248.29 3.55L248.29 3.55Q248.26 3.60 248.14 3.75L248.14 3.75L248.14 3.75Q248.09 3.83 248.04 3.90L248.04 3.90L247.97 3.97L241.60 11.25L247.14 11.25L247.14 11.25Q247.71 11.25 247.77 11.17L247.77 11.17L247.77 11.17Q247.88 11.03 248.04 9.95L248.04 9.95L248.57 9.97L248.57 9.97Q248.57 10.01 248.55 10.11L248.55 10.11L248.55 10.11Q248.53 10.21 248.51 10.40L248.51 10.40L248.51 10.40Q248.49 10.60 248.47 10.79L248.47 10.79L248.47 10.79Q248.33 11.87 248.29 12.41L248.29 12.41L240.33 12.41L240.33 12.41Q240.02 12.41 240.02 12.13ZM266.25 8.02L266.25 8.02L266.25 8.02Q266.25 6.86 266.72 5.83L266.72 5.83L266.72 5.83Q267.19 4.85 267.94 4.27L267.94 4.27L267.94 4.27Q268.69 3.69 269.58 3.37L269.58 3.37L269.58 3.37Q270.48 3.05 271.32 3.05L271.32 3.05L271.32 3.05Q272.19 3.05 272.86 3.16L272.86 3.16L272.86 3.16Q273.49 3.26 273.78 3.37L273.78 3.37L273.78 3.37Q274.09 3.48 274.12 3.48L274.12 3.48L274.12 3.48Q274.29 3.48 274.31 3.41L274.31 3.41L274.31 3.41Q274.34 3.33 274.34 3.09L274.34 3.09L274.34 2.97L274.87 2.97L274.87 2.97Q274.91 4.30 275.04 5.64L275.04 5.64L274.54 5.65L274.54 5.65Q274.51 5.40 274.50 5.26L274.50 5.26L274.50 5.26Q274.50 5.20 274.49 5.13L274.49 5.13L274.49 5.13Q274.48 5.07 274.48 5.02L274.48 5.02L274.48 5.02Q274.47 4.98 274.47 4.95L274.47 4.95L274.47 4.95Q274.44 4.84 274.44 4.74L274.44 4.74L274.44 4.74Q274.44 4.68 274.40 4.59L274.40 4.59L274.40 4.59Q274.40 4.57 274.37 4.55L274.37 4.55L274.37 4.55Q274.34 4.52 274.34 4.50L274.34 4.50L274.34 4.50Q274.31 4.44 274.24 4.41L274.24 4.41L274.24 4.41Q274.20 4.38 274.18 4.37L274.18 4.37L274.18 4.37Q274.15 4.36 274.12 4.35L274.12 4.35L274.12 4.35Q274.11 4.35 274.08 4.33L274.08 4.33L274.08 4.33Q274.06 4.31 274.02 4.29L274.02 4.29L274.02 4.29Q273.98 4.27 273.94 4.25L273.94 4.25L273.94 4.25Q273.71 4.16 273.68 4.14L273.68 4.14L273.68 4.14Q273.33 3.96 272.69 3.83L272.69 3.83L272.69 3.83Q272.02 3.71 271.36 3.71L271.36 3.71L271.36 3.71Q269.64 3.71 268.54 4.84L268.54 4.84L268.54 4.84Q267.44 5.99 267.44 7.62L267.44 7.62L267.44 7.62Q267.44 9.35 268.66 10.69L268.66 10.69L268.66 10.69Q269.86 12.02 271.68 12.02L271.68 12.02L271.68 12.02Q272.69 12.02 273.63 11.49L273.63 11.49L273.63 11.49Q274.58 10.94 274.61 10.58L274.61 10.58L274.65 9.41L275.14 9.41L275.06 11.45L275.06 11.45Q274.99 11.49 274.86 11.57L274.86 11.57L274.86 11.57Q274.80 11.60 274.34 11.85L274.34 11.85L274.34 11.85Q273.96 12.05 273.52 12.23L273.52 12.23L273.52 12.23Q273.16 12.39 272.51 12.51L272.51 12.51L272.51 12.51Q271.90 12.63 271.33 12.64L271.33 12.64L271.33 12.64Q268.95 12.64 267.59 11.39L267.59 11.39L267.59 11.39Q266.25 10.14 266.25 8.02ZM283.66 3.64L283.17 3.64L283.19 3.08L286.77 3.08L286.77 3.64L286.14 3.64L286.14 3.64Q285.76 3.64 285.65 3.72L285.65 3.72L285.65 3.72Q285.54 3.80 285.54 4.16L285.54 4.16L285.54 11.22L285.54 11.22Q285.54 11.57 285.62 11.67L285.62 11.67L285.62 11.67Q285.71 11.77 286.00 11.77L286.00 11.77L286.00 11.77Q288.87 11.74 289.53 11.63L289.53 11.63L289.53 11.63Q289.74 11.61 289.82 11.39L289.82 11.39L289.82 11.39Q289.91 11.17 290.10 10.05L290.10 10.05L290.60 10.08L290.13 12.41L283.37 12.41L283.36 11.87L283.75 11.87L283.75 11.87Q284.25 11.87 284.32 11.80L284.32 11.80L284.32 11.80Q284.40 11.72 284.41 11.33L284.41 11.33L284.41 4.09L284.41 4.09Q284.41 3.80 284.25 3.72L284.25 3.72L284.25 3.72Q284.10 3.64 283.66 3.64L283.66 3.64ZM298.71 3.64L298.33 3.64L298.33 3.08L301.69 3.08L301.70 3.64L301.17 3.64L301.17 3.64Q300.74 3.64 300.58 3.73L300.58 3.73L300.58 3.73Q300.41 3.83 300.41 4.16L300.41 4.16L300.41 9.33L300.41 9.33Q300.41 9.63 300.45 9.78L300.45 9.78L300.45 9.78Q300.49 10.01 300.65 10.41L300.65 10.41L300.65 10.41Q300.82 10.80 301.12 11.09L301.12 11.09L301.12 11.09Q301.42 11.40 301.98 11.63L301.98 11.63L301.98 11.63Q302.56 11.85 303.34 11.85L303.34 11.85L303.34 11.85Q304.19 11.85 304.74 11.67L304.74 11.67L304.74 11.67Q305.30 11.48 305.61 11.22L305.61 11.22L305.61 11.22Q305.92 10.96 306.06 10.49L306.06 10.49L306.06 10.49Q306.23 9.95 306.24 9.66L306.24 9.66L306.24 9.66Q306.26 9.18 306.27 8.67L306.27 8.67L306.27 4.14L306.27 4.14Q306.27 3.81 306.13 3.72L306.13 3.72L306.13 3.72Q305.98 3.64 305.50 3.64L305.50 3.64L305.01 3.64L305.03 3.08L307.67 3.08L307.67 3.64L307.47 3.64L307.47 3.64Q307.15 3.64 307.04 3.75L307.04 3.75L307.04 3.75Q306.93 3.86 306.93 4.25L306.93 4.25L306.93 9.22L306.93 9.22Q306.93 12.67 303.34 12.67L303.34 12.67L303.34 12.67Q301.17 12.67 300.22 11.76L300.22 11.76L300.22 11.76Q299.28 10.86 299.28 9.41L299.28 9.41L299.28 4.14L299.28 4.14Q299.28 3.81 299.18 3.72L299.18 3.72L299.18 3.72Q299.07 3.64 298.71 3.64L298.71 3.64ZM315.80 3.64L315.40 3.64L315.43 3.08L318.53 3.08L318.53 3.08Q320.27 3.08 321.05 3.75L321.05 3.75L321.05 3.75Q321.82 4.42 321.82 5.37L321.82 5.37L321.82 5.37Q321.82 6.08 321.28 6.60L321.28 6.60L321.28 6.60Q320.72 7.14 320.02 7.35L320.02 7.35L320.02 7.35Q321.10 7.57 321.64 8.34L321.64 8.34L321.64 8.34Q322.16 9.08 322.15 10.01L322.15 10.01L322.15 10.01Q322.15 11.01 321.52 11.59L321.52 11.59L321.52 11.59Q320.92 12.13 319.97 12.28L319.97 12.28L319.97 12.28Q319.05 12.41 317.50 12.41L317.50 12.41L315.52 12.41L315.52 11.87L315.94 11.87L315.94 11.87Q316.30 11.87 316.41 11.80L316.41 11.80L316.41 11.80Q316.52 11.73 316.52 11.46L316.52 11.46L316.52 4.14L316.52 4.14Q316.52 3.81 316.37 3.72L316.37 3.72L316.37 3.72Q316.24 3.64 315.80 3.64L315.80 3.64ZM317.63 7.59L317.63 7.59L317.66 11.35L317.66 11.35Q317.66 11.63 317.83 11.71L317.83 11.71L317.83 11.71Q317.99 11.80 318.57 11.80L318.57 11.80L318.57 11.80Q320.82 11.80 320.82 9.91L320.82 9.91L320.82 9.91Q320.82 9.22 320.50 8.73L320.50 8.73L320.50 8.73Q320.19 8.24 319.66 8.02L319.66 8.02L319.66 8.02Q319.07 7.75 318.64 7.68L318.64 7.68L318.64 7.68Q318.16 7.59 317.63 7.59ZM317.66 4.01L317.66 7.19L319.03 7.19L319.03 7.19Q319.69 7.19 320.11 6.66L320.11 6.66L320.11 6.66Q320.51 6.15 320.52 5.54L320.52 5.54L320.52 5.54Q320.52 4.85 319.93 4.27L319.93 4.27L319.93 4.27Q319.35 3.69 318.08 3.69L318.08 3.69L318.08 3.69Q317.66 3.69 317.66 4.01L317.66 4.01ZM330.57 3.64L330.20 3.64L330.20 3.08L333.68 3.08L333.68 3.64L333.32 3.64L333.32 3.64Q332.81 3.64 332.66 3.75L332.66 3.75L332.66 3.75Q332.53 3.84 332.52 4.25L332.52 4.25L332.52 6.91L337.07 6.91L337.07 4.14L337.07 4.14Q337.07 3.77 336.98 3.71L336.98 3.71L336.98 3.71Q336.87 3.64 336.34 3.64L336.34 3.64L335.75 3.64L335.74 3.08L339.29 3.08L339.29 3.64L338.91 3.64L338.91 3.64Q338.43 3.64 338.32 3.74L338.32 3.74L338.32 3.74Q338.21 3.83 338.21 4.22L338.21 4.22L338.21 11.29L338.21 11.29Q338.21 11.67 338.34 11.77L338.34 11.77L338.34 11.77Q338.50 11.87 339.05 11.87L339.05 11.87L339.52 11.87L339.51 12.41L336.02 12.41L336.01 11.87L336.42 11.87L336.42 11.87Q336.88 11.87 336.98 11.77L336.98 11.77L336.98 11.77Q337.07 11.67 337.07 11.25L337.07 11.25L337.07 7.58L332.52 7.58L332.52 11.25L332.52 11.25Q332.52 11.67 332.67 11.77L332.67 11.77L332.67 11.77Q332.83 11.87 333.53 11.87L333.53 11.87L333.94 11.87L333.91 12.41L330.33 12.41L330.31 11.87L330.67 11.87L330.67 11.87Q331.22 11.87 331.29 11.80L331.29 11.80L331.29 11.80Q331.39 11.70 331.39 11.25L331.39 11.25L331.39 4.09L331.39 4.09Q331.39 3.76 331.25 3.71L331.25 3.71L331.25 3.71Q331.08 3.64 330.57 3.64L330.57 3.64ZM347.64 7.83L347.64 7.83L347.64 7.83Q347.64 6.62 348.04 5.68L348.04 5.68L348.04 5.68Q348.46 4.72 349.15 4.12L349.15 4.12L349.15 4.12Q349.84 3.51 350.70 3.19L350.70 3.19L350.70 3.19Q351.54 2.88 352.50 2.88L352.50 2.88L352.50 2.88Q353.75 2.88 354.81 3.40L354.81 3.40L354.81 3.40Q355.89 3.93 356.60 5.07L356.60 5.07L356.60 5.07Q357.29 6.17 357.30 7.75L357.30 7.75L357.30 7.75Q357.30 8.70 356.99 9.54L356.99 9.54L356.99 9.54Q356.69 10.38 356.08 11.10L356.08 11.10L356.08 11.10Q355.48 11.81 354.54 12.22L354.54 12.22L354.54 12.22Q353.58 12.63 352.39 12.64L352.39 12.64L352.39 12.64Q351.25 12.64 350.31 12.23L350.31 12.23L350.31 12.23Q349.38 11.83 348.82 11.14L348.82 11.14L348.82 11.14Q348.24 10.45 347.95 9.60L347.95 9.60L347.95 9.60Q347.64 8.72 347.64 7.83ZM348.90 7.38L348.90 7.38L348.90 7.38Q348.90 8.52 349.33 9.60L349.33 9.60L349.33 9.60Q349.73 10.64 350.66 11.33L350.66 11.33L350.66 11.33Q351.57 12.03 352.76 12.04L352.76 12.04L352.76 12.04Q354.14 12.04 355.07 11.01L355.07 11.01L355.07 11.01Q356.02 9.97 356.02 8.10L356.02 8.10L356.02 8.10Q356.02 5.99 354.86 4.72L354.86 4.72L354.86 4.72Q353.71 3.46 352.20 3.45L352.20 3.45L352.20 3.45Q351.68 3.45 351.14 3.65L351.14 3.65L351.14 3.65Q350.59 3.85 350.09 4.25L350.09 4.25L350.09 4.25Q349.54 4.68 349.22 5.48L349.22 5.48L349.22 5.48Q348.90 6.27 348.90 7.38ZM365.80 3.64L365.42 3.64L365.42 3.08L368.78 3.08L368.79 3.64L368.26 3.64L368.26 3.64Q367.83 3.64 367.67 3.73L367.67 3.73L367.67 3.73Q367.50 3.83 367.50 4.16L367.50 4.16L367.50 9.33L367.50 9.33Q367.50 9.63 367.53 9.78L367.53 9.78L367.53 9.78Q367.58 10.01 367.74 10.41L367.74 10.41L367.74 10.41Q367.91 10.80 368.20 11.09L368.20 11.09L368.20 11.09Q368.51 11.40 369.07 11.63L369.07 11.63L369.07 11.63Q369.65 11.85 370.43 11.85L370.43 11.85L370.43 11.85Q371.28 11.85 371.83 11.67L371.83 11.67L371.83 11.67Q372.39 11.48 372.70 11.22L372.70 11.22L372.70 11.22Q373.00 10.96 373.15 10.49L373.15 10.49L373.15 10.49Q373.32 9.95 373.32 9.66L373.32 9.66L373.32 9.66Q373.35 9.18 373.36 8.67L373.36 8.67L373.36 4.14L373.36 4.14Q373.36 3.81 373.21 3.72L373.21 3.72L373.21 3.72Q373.06 3.64 372.59 3.64L372.59 3.64L372.09 3.64L372.12 3.08L374.75 3.08L374.75 3.64L374.56 3.64L374.56 3.64Q374.24 3.64 374.13 3.75L374.13 3.75L374.13 3.75Q374.01 3.86 374.01 4.25L374.01 4.25L374.01 9.22L374.01 9.22Q374.01 12.67 370.43 12.67L370.43 12.67L370.43 12.67Q368.26 12.67 367.31 11.76L367.31 11.76L367.31 11.76Q366.37 10.86 366.37 9.41L366.37 9.41L366.37 4.14L366.37 4.14Q366.37 3.81 366.27 3.72L366.27 3.72L366.27 3.72Q366.16 3.64 365.80 3.64L365.80 3.64ZM382.46 10.04L382.46 10.04L382.96 9.98L383.14 10.85L383.14 10.85Q383.25 11.33 383.32 11.41L383.32 11.41L383.32 11.41Q383.39 11.49 383.80 11.64L383.80 11.64L383.80 11.64Q384.64 11.95 385.53 11.95L385.53 11.95L385.53 11.95Q386.32 11.95 386.86 11.49L386.86 11.49L386.86 11.49Q387.39 11.04 387.39 10.26L387.39 10.26L387.39 10.26Q387.39 9.65 386.93 9.21L386.93 9.21L386.93 9.21Q386.46 8.76 385.60 8.30L385.60 8.30L385.03 7.98L385.03 7.98Q384.28 7.55 384.05 7.36L384.05 7.36L384.05 7.36Q383.69 7.08 383.38 6.59L383.38 6.59L383.38 6.59Q383.07 6.10 383.07 5.46L383.07 5.46L383.07 5.46Q383.07 4.39 383.91 3.68L383.91 3.68L383.91 3.68Q384.75 2.97 385.85 2.97L385.85 2.97L385.85 2.97Q386.13 2.97 386.48 3.04L386.48 3.04L386.48 3.04Q386.68 3.08 387.02 3.17L387.02 3.17L387.26 3.25L387.26 3.25Q387.35 3.25 387.39 3.16L387.39 3.16L387.39 3.16Q387.45 3.05 387.45 2.98L387.45 2.98L387.46 2.88L387.94 2.85L388.15 5.41L387.65 5.43L387.52 4.18L387.52 4.18Q386.78 3.62 385.62 3.62L385.62 3.62L385.62 3.62Q384.97 3.62 384.47 4.05L384.47 4.05L384.47 4.05Q383.99 4.47 383.99 5.12L383.99 5.12L383.99 5.12Q383.99 5.72 384.44 6.17L384.44 6.17L384.44 6.17Q384.87 6.60 385.74 7.08L385.74 7.08L386.51 7.50L386.51 7.50Q387.46 8.03 387.99 8.59L387.99 8.59L387.99 8.59Q388.53 9.15 388.53 9.92L388.53 9.92L388.53 9.92Q388.53 10.99 387.67 11.76L387.67 11.76L387.67 11.76Q386.80 12.54 385.35 12.54L385.35 12.54L385.35 12.54Q384.79 12.54 384.29 12.41L384.29 12.41L384.29 12.41Q383.78 12.29 383.73 12.29L383.73 12.29L383.73 12.29Q383.48 12.29 383.48 12.58L383.48 12.58L383.49 12.76L383.01 12.80L383.01 12.80Q382.95 12.41 382.46 10.04ZM396.72 3.64L396.71 3.08L403.92 3.08L403.92 3.08Q403.94 4.14 403.99 5.28L403.99 5.28L403.44 5.30L403.44 5.30Q403.43 4.66 403.38 4.25L403.38 4.25L403.38 4.25Q403.33 3.89 403.28 3.80L403.28 3.80L403.28 3.80Q403.22 3.71 403.11 3.69L403.11 3.69L403.11 3.69Q403.01 3.68 402.42 3.68L402.42 3.68L400.05 3.68L400.05 3.68Q399.50 3.68 399.36 3.77L399.36 3.77L399.36 3.77Q399.23 3.86 399.23 4.33L399.23 4.33L399.23 6.28L399.23 6.28Q399.23 6.69 399.29 6.76L399.29 6.76L399.29 6.76Q399.36 6.84 399.70 6.84L399.70 6.84L401.81 6.84L401.81 6.84Q402.17 6.84 402.25 6.73L402.25 6.73L402.25 6.73Q402.34 6.63 402.34 6.14L402.34 6.14L402.34 5.61L402.86 5.63L402.86 8.97L402.34 8.97L402.34 8.24L402.34 8.24Q402.34 7.66 402.27 7.57L402.27 7.57L402.27 7.57Q402.19 7.46 401.84 7.46L401.84 7.46L399.74 7.46L399.74 7.46Q399.40 7.46 399.32 7.54L399.32 7.54L399.32 7.54Q399.23 7.63 399.23 7.89L399.23 7.89L399.23 11.20L399.23 11.20Q399.23 11.57 399.32 11.67L399.32 11.67L399.32 11.67Q399.40 11.77 399.68 11.77L399.68 11.77L399.68 11.77Q402.60 11.75 403.12 11.69L403.12 11.69L403.12 11.69Q403.64 11.63 403.72 11.38L403.72 11.38L403.73 11.36L403.74 11.35L403.96 10.17L404.44 10.25L404.09 12.41L396.99 12.41L396.99 11.87L397.36 11.87L397.36 11.87Q397.92 11.87 398.00 11.80L398.00 11.80L398.00 11.80Q398.10 11.72 398.10 11.33L398.10 11.33L398.10 4.24L398.10 4.24Q398.10 3.82 397.95 3.73L397.95 3.73L397.95 3.73Q397.78 3.64 397.12 3.64L397.12 3.64L396.72 3.64Z"></path></g></svg>