<svg data-v-423bf9ae="" xmlns="http://www.w3.org/2000/svg" viewBox="0 0 219.60239552383553 60" class="font"><!----><!----><!----><g data-v-423bf9ae="" id="dd2df034-c92e-48dc-872a-334f166985cd" fill="black" transform="matrix(5.964215028353327,0,0,5.964215028353327,-4.234592357998821,-22.18688031453052)"><path d="M7.59 3.92L5.66 3.92L5.66 9.81C5.66 10.21 5.66 10.53 5.64 10.84C5.56 11.76 5.11 12.33 4.21 12.33C3.30 12.33 2.74 11.84 2.67 10.56L2.65 10.07L0.71 10.07L0.73 10.56C0.78 12.53 1.86 13.78 4.10 13.78C6.40 13.78 7.45 12.61 7.55 10.95C7.59 10.33 7.59 10.02 7.59 9.62ZM13.73 3.72C11.06 3.72 9.06 5.64 9.06 8.81C9.06 11.89 10.91 13.78 13.59 13.78C16.07 13.78 17.64 12.43 17.85 10.37L17.86 10.23L15.95 10.23L15.92 10.37C15.67 11.58 14.94 12.33 13.68 12.33C12.21 12.33 11.10 11.10 11.10 8.69C11.10 6.50 12.15 5.17 13.71 5.17C14.99 5.17 15.72 5.87 15.96 7.06L15.99 7.20L17.92 7.20L17.91 7.06C17.71 5.15 16.35 3.72 13.73 3.72ZM23.77 8.54L28.04 3.92L25.75 3.92L21.57 8.58L21.57 3.92L19.64 3.92L19.64 13.58L21.57 13.58L21.57 10.54L22.37 9.67L25.35 13.58L27.85 13.58ZM33.35 3.72C30.67 3.72 28.67 5.64 28.67 8.81C28.67 11.89 30.52 13.78 33.21 13.78C35.69 13.78 37.25 12.43 37.46 10.37L37.48 10.23L35.56 10.23L35.53 10.37C35.28 11.58 34.55 12.33 33.29 12.33C31.82 12.33 30.72 11.10 30.72 8.69C30.72 6.50 31.77 5.17 33.32 5.17C34.61 5.17 35.34 5.87 35.57 7.06L35.60 7.20L37.53 7.20L37.52 7.06C37.32 5.15 35.97 3.72 33.35 3.72Z"></path></g><!----><!----></svg>